<svg xmlns="http://www.w3.org/2000/svg" width="12" height="12" viewBox="0 0 12 12" fill="none">
  <path d="M1.5 1.5H2.5L2.7 2.5M3.5 6.5H8.5L10.5 2.5H2.7M3.5 6.5L2.7 2.5M3.5 6.5L2.35355 7.64645C2.03857 7.96143 2.26165 8.5 2.70711 8.5H8.5M8.5 8.5C7.94772 8.5 7.5 8.94772 7.5 9.5C7.5 10.0523 7.94772 10.5 8.5 10.5C9.05228 10.5 9.5 10.0523 9.5 9.5C9.5 8.94772 9.05228 8.5 8.5 8.5ZM4.5 9.5C4.5 10.0523 4.05228 10.5 3.5 10.5C2.94772 10.5 2.5 10.0523 2.5 9.5C2.5 8.94772 2.94772 8.5 3.5 8.5C4.05228 8.5 4.5 8.94772 4.5 9.5Z" stroke="#83758B" stroke-linecap="round" stroke-linejoin="round"/>
</svg>