<svg width="20" height="20" viewBox="0 0 20 20" fill="none" xmlns="http://www.w3.org/2000/svg">
<g id="Icon/Solid/star">
<path id="Icon" d="M9.52449 4.08155C9.67416 3.62089 10.3259 3.62089 10.4755 4.08155L11.5451 7.37334C11.7459 7.99138 12.3219 8.40982 12.9717 8.40982H16.4329C16.9173 8.40982 17.1186 9.02962 16.7268 9.31432L13.9266 11.3488C13.4009 11.7307 13.1809 12.4078 13.3817 13.0258L14.4513 16.3176C14.601 16.7783 14.0737 17.1613 13.6819 16.8766L10.8817 14.8422C10.356 14.4602 9.64407 14.4602 9.11834 14.8422L6.31817 16.8766C5.92631 17.1613 5.39907 16.7783 5.54875 16.3176L6.61832 13.0258C6.81913 12.4078 6.59914 11.7307 6.07341 11.3488L3.27324 9.31432C2.88138 9.02962 3.08277 8.40982 3.56713 8.40982H7.02833C7.67817 8.40982 8.25411 7.99138 8.45492 7.37334L9.52449 4.08155Z" stroke="#FFC303"/>
</g>
</svg>
