<svg xmlns="http://www.w3.org/2000/svg" width="16" height="17" viewBox="0 0 16 17" fill="none">
  <path d="M2 7.83331V11.0334C2 11.7802 2 12.1534 2.14532 12.4386C2.27316 12.6895 2.47698 12.8936 2.72786 13.0215C3.0128 13.1666 3.386 13.1666 4.13127 13.1666H11.8687C12.614 13.1666 12.9867 13.1666 13.2716 13.0215C13.5225 12.8936 13.727 12.6895 13.8548 12.4386C14 12.1536 14 11.781 14 11.0357V7.83331M2 7.83331V6.49998M2 7.83331H14M2 6.49998V5.96678C2 5.22004 2 4.84639 2.14532 4.56118C2.27316 4.31029 2.47698 4.10647 2.72786 3.97864C3.01308 3.83331 3.38673 3.83331 4.13346 3.83331H11.8668C12.6135 3.83331 12.9864 3.83331 13.2716 3.97864C13.5225 4.10647 13.727 4.31029 13.8548 4.56118C14 4.84611 14 5.21931 14 5.96459V6.49998M2 6.49998H14M4.66667 10.5H7.33333M14 7.83331V6.49998" stroke="#190028" stroke-width="1.33333" stroke-linecap="round" stroke-linejoin="round"/>
</svg>